<svg width="398" height="878" viewBox="0 0 398 878" fill="none" xmlns="http://www.w3.org/2000/svg">
<path fill-rule="evenodd" clip-rule="evenodd" d="M41.1989 25.1646L361.155 0L398 25.1646V835.02L361.155 877.184L41.1989 835.02V25.1646Z" fill="url(#paint0_linear_136_15)"/>
<path d="M361.154 0.00038147H0V877.184H361.154V0.00038147Z" fill="url(#paint1_linear_136_15)"/>
<path d="M306.168 503.931H53.6999V518.319H306.168V503.931Z" fill="#99999A"/>
<path d="M192.112 105.285H156.219V179.102H192.112V105.285Z" fill="#4F4F4F" stroke="#2B2A29" stroke-width="0.755906" stroke-miterlimit="22.9256"/>
<path d="M176.579 130.552L175.951 129.923H173.228L172.61 130.552L173.228 131.169H175.951L176.579 130.552ZM177.441 125.943L176.812 125.326H173.215L172.599 125.931L173.228 126.559H176.812L177.441 125.943ZM172.377 126.152L171.761 126.757V129.714L172.377 130.342L172.995 129.714V126.769L172.377 126.152ZM176.149 131.378V134.334L176.778 134.952L177.394 134.334V131.378L176.778 130.761L176.149 131.378ZM176.568 135.161L175.94 134.544H172.355L171.738 135.161L172.355 135.79H175.94L176.568 135.161Z" fill="#2AA1DA"/>
<path d="M167.719 157.055L167.142 156.478H162.717L162.161 157.055L162.717 157.621H167.142L167.719 157.055ZM173.554 157.055L172.977 156.478H170.476L169.909 157.055L170.476 157.621H172.977L173.554 157.055ZM173.736 156.852L174.302 156.274V153.581L173.736 153.015L173.159 153.581V156.274L173.736 156.852ZM173.543 152.822L172.966 152.256H169.696L169.129 152.812L169.706 153.389H172.966L173.543 152.822ZM169.129 157.813V160.528L169.696 161.095L170.262 160.528V157.813L169.696 157.247L169.129 157.813ZM174.312 161.287L173.736 160.721H170.476L169.909 161.287L170.476 161.864H173.736L174.312 161.287ZM180.095 156.852L180.661 156.274V153.581L180.095 153.015L179.518 153.581V156.274L180.095 156.852ZM179.902 152.822L179.325 152.256H176.824L176.258 152.812L176.835 153.389H179.325L179.902 152.822ZM176.055 153.015L175.489 153.57V156.285L176.055 156.862L176.622 156.285V153.581L176.055 153.015ZM175.489 157.813V160.528L176.055 161.095L176.622 160.528V157.813L176.055 157.247L175.489 157.813ZM179.518 157.813V160.528L180.095 161.095L180.661 160.528V157.813L180.095 157.247L179.518 157.813ZM179.902 161.287L179.325 160.721H176.835L176.268 161.287L176.835 161.864H179.325L179.902 161.287Z" fill="#2AA1DA"/>
<path d="M173.081 112.759V109.877H174.809V110.186H173.43V111.16H174.68V111.47H173.43V112.759H173.081ZM175.339 112.759V110.597H175.659V110.924H175.682C175.721 110.817 175.793 110.73 175.896 110.664C175.999 110.597 176.115 110.564 176.245 110.564C176.269 110.564 176.3 110.564 176.336 110.565C176.373 110.566 176.401 110.567 176.419 110.569V110.907C176.408 110.904 176.382 110.9 176.342 110.894C176.303 110.888 176.261 110.885 176.217 110.885C176.112 110.885 176.018 110.907 175.935 110.951C175.854 110.994 175.789 111.054 175.741 111.131C175.694 111.207 175.671 111.294 175.671 111.391V112.759H175.339ZM177.626 112.804C177.43 112.804 177.259 112.758 177.112 112.665C176.966 112.572 176.851 112.442 176.768 112.275C176.687 112.108 176.646 111.913 176.646 111.69C176.646 111.464 176.687 111.268 176.768 111.1C176.851 110.932 176.966 110.802 177.112 110.709C177.259 110.616 177.43 110.569 177.626 110.569C177.821 110.569 177.992 110.616 178.138 110.709C178.285 110.802 178.4 110.932 178.481 111.1C178.564 111.268 178.605 111.464 178.605 111.69C178.605 111.913 178.564 112.108 178.481 112.275C178.4 112.442 178.285 112.572 178.138 112.665C177.992 112.758 177.821 112.804 177.626 112.804ZM177.626 112.506C177.774 112.506 177.896 112.468 177.992 112.392C178.087 112.316 178.158 112.216 178.204 112.092C178.25 111.968 178.273 111.834 178.273 111.69C178.273 111.545 178.25 111.41 178.204 111.286C178.158 111.161 178.087 111.06 177.992 110.983C177.896 110.906 177.774 110.868 177.626 110.868C177.477 110.868 177.355 110.906 177.26 110.983C177.164 111.06 177.093 111.161 177.047 111.286C177.001 111.41 176.978 111.545 176.978 111.69C176.978 111.834 177.001 111.968 177.047 112.092C177.093 112.216 177.164 112.316 177.26 112.392C177.355 112.468 177.477 112.506 177.626 112.506ZM180.643 111.082L180.345 111.166C180.326 111.116 180.299 111.068 180.262 111.021C180.226 110.973 180.178 110.934 180.116 110.903C180.054 110.872 179.974 110.856 179.878 110.856C179.745 110.856 179.635 110.887 179.547 110.948C179.46 111.008 179.416 111.084 179.416 111.177C179.416 111.26 179.446 111.325 179.506 111.373C179.566 111.421 179.66 111.461 179.788 111.493L180.109 111.571C180.302 111.618 180.446 111.69 180.541 111.787C180.635 111.882 180.683 112.006 180.683 112.157C180.683 112.281 180.647 112.391 180.576 112.489C180.505 112.587 180.407 112.663 180.28 112.72C180.154 112.776 180.006 112.804 179.838 112.804C179.618 112.804 179.435 112.756 179.291 112.661C179.146 112.565 179.055 112.425 179.016 112.241L179.332 112.162C179.362 112.279 179.418 112.366 179.502 112.424C179.586 112.482 179.697 112.511 179.833 112.511C179.988 112.511 180.11 112.479 180.201 112.413C180.293 112.346 180.339 112.267 180.339 112.174C180.339 112.099 180.313 112.036 180.261 111.985C180.208 111.934 180.127 111.895 180.019 111.87L179.658 111.785C179.46 111.738 179.315 111.666 179.222 111.567C179.13 111.468 179.084 111.343 179.084 111.194C179.084 111.072 179.118 110.964 179.187 110.87C179.256 110.777 179.35 110.703 179.47 110.65C179.59 110.596 179.726 110.569 179.878 110.569C180.092 110.569 180.26 110.616 180.382 110.71C180.505 110.804 180.592 110.928 180.643 111.082ZM182.123 110.597V110.879H181.003V110.597H182.123ZM181.329 110.08H181.661V112.14C181.661 112.234 181.675 112.304 181.702 112.351C181.73 112.397 181.766 112.428 181.809 112.444C181.853 112.459 181.9 112.466 181.948 112.466C181.985 112.466 182.015 112.465 182.038 112.461C182.062 112.456 182.081 112.452 182.095 112.45L182.162 112.748C182.14 112.756 182.108 112.765 182.068 112.773C182.028 112.783 181.977 112.787 181.915 112.787C181.821 112.787 181.729 112.767 181.639 112.727C181.55 112.686 181.476 112.625 181.416 112.542C181.358 112.46 181.329 112.356 181.329 112.23V110.08Z" fill="#FEFEFE"/>
<path fill-rule="evenodd" clip-rule="evenodd" d="M162.02 108.938C165.322 108.938 167.623 108.861 169.27 109.055C170.064 109.148 170.71 109.181 171.239 109.554C173.079 110.85 172.733 114.162 171.287 115.534C170.717 116.075 170.258 116.124 169.289 116.234C167.623 116.423 165.035 116.389 162.02 116.389V108.938Z" fill="#FEFEFE"/>
<path d="M165.647 109.698V112.775H165.286L163.61 110.359H163.58V112.775H163.207V109.698H163.568L165.25 112.12H165.28V109.698H165.647ZM168.988 111.237C168.988 111.561 168.929 111.842 168.812 112.078C168.695 112.314 168.534 112.496 168.33 112.625C168.126 112.753 167.892 112.817 167.63 112.817C167.367 112.817 167.134 112.753 166.93 112.625C166.726 112.496 166.565 112.314 166.448 112.078C166.33 111.842 166.272 111.561 166.272 111.237C166.272 110.912 166.33 110.632 166.448 110.395C166.565 110.159 166.726 109.977 166.93 109.849C167.134 109.72 167.367 109.656 167.63 109.656C167.892 109.656 168.126 109.72 168.33 109.849C168.534 109.977 168.695 110.159 168.812 110.395C168.929 110.632 168.988 110.912 168.988 111.237ZM168.627 111.237C168.627 110.97 168.583 110.745 168.494 110.562C168.405 110.379 168.286 110.24 168.135 110.146C167.984 110.052 167.816 110.005 167.63 110.005C167.444 110.005 167.275 110.052 167.124 110.146C166.973 110.24 166.854 110.379 166.765 110.562C166.676 110.745 166.632 110.97 166.632 111.237C166.632 111.503 166.676 111.728 166.765 111.911C166.854 112.094 166.973 112.233 167.124 112.327C167.275 112.421 167.444 112.468 167.63 112.468C167.816 112.468 167.984 112.421 168.135 112.327C168.286 112.233 168.405 112.094 168.494 111.911C168.583 111.728 168.627 111.503 168.627 111.237Z" fill="#1F1B20"/>
<path d="M306.168 503.931H53.6999V518.319H306.168V503.931Z" fill="#99999A"/>
<path fill-rule="evenodd" clip-rule="evenodd" d="M0.000579834 501.59H361.155V505.359H0.000579834V501.59Z" fill="#7A7A7A"/>
<path fill-rule="evenodd" clip-rule="evenodd" d="M0.000579834 873.412H361.155V877.181H0.000579834V873.412Z" fill="#7A7A7A"/>
<path fill-rule="evenodd" clip-rule="evenodd" d="M367.629 4.42259L366.806 870.716L364.366 873.508L363.895 1.8717L367.629 4.42259Z" fill="#D7D7D8"/>
<defs>
<linearGradient id="paint0_linear_136_15" x1="684.785" y1="692.373" x2="170.948" y2="55.6111" gradientUnits="userSpaceOnUse">
<stop stop-color="#8A8A8B"/>
<stop offset="0.478431" stop-color="#C4C4C4"/>
<stop offset="1" stop-color="#FEFEFE"/>
</linearGradient>
<linearGradient id="paint1_linear_136_15" x1="510.992" y1="986.636" x2="-11.7932" y2="-50.8477" gradientUnits="userSpaceOnUse">
<stop stop-color="#858585"/>
<stop offset="0.34902" stop-color="#C1C1C1"/>
<stop offset="1" stop-color="#FEFEFE"/>
</linearGradient>
</defs>
</svg>
